<svg
  viewBox="0 0 320 320"
  fill="none"
  xmlns="http://www.w3.org/2000/svg"
  aria-labelledby="title desc"
  role="img">
  <title id="title">Logo da CollabCode</title>
  <desc id="desc">
    Tem o desenho de um passáro com cabelo vermelho chamado Gueio
  </desc>

  <path
    d="M159.999 299.139C243.353 299.139 310.924 233.844 310.924 153.298C310.924
    72.7517 243.353 7.4563 159.999 7.4563C76.646 7.4563 9.07471 72.7517 9.07471
    153.298C9.07471 233.844 76.646 299.139 159.999 299.139Z"
    fill="#3A4042" />
  <path
    d="M286.635 136.399C245.377 136.399 227.01 182.753 226.445 184.198C225.119
    188.149 216.03 216.187 216.03 238.606C216.03 280.976 179.661 305.493 135.541
    305.493C91.0546 305.493 55.0141 280.606 55.0141 237.637C55.0141 237.637
    55.0141 213.896 58.005 192.817C50.9098 185.061 49.87 172.636 49.87
    172.636C49.87 172.636 46.8812 173.2 44.146 175.401C43.8082 175.674 43.2904
    175.411 43.342 174.988C44.1502 168.358 51.0992 154.287 64.8635
    152.261C67.2714 142.85 71.8304 132.892 72.8702 131.006C86.8229 105.873
    114.255 88.7944 145.828 88.7944C157.409 88.7944 168.426 91.0856 178.44
    95.2449C206.272 95.2449 219.715 80.9689 219.715 80.9689C225.964 80.9689
    233.496 96.7693 230.006 102.656C229.921 102.801 230.11 102.969 230.255
    102.879C241.85 95.7412 248.386 78.1316 248.386 78.1316C261.628 84.5293
    268.578 113.276 261.463 120.149C284.318 123.55 290.465 136.399 286.635
    136.399Z"
    fill="#FFFCEE" />
  <path
    d="M133.546 305.459C89.9799 304.73 55.0107 279.975 55.0107 237.644C55.0107
    237.644 54.6456 231.568 55.6738 217.27C101.227 210.352 78.836 273.439
    133.546 305.459Z"
    fill="#EAE6DA" />
  <path
    d="M287.694 135.271C287.694 135.976 287.329 136.399 286.637 136.399C285.98
    136.399 285.342 136.416 284.685 136.435C248.079 137.615 231.847 171.896
    229.092 178.417C229.074 178.453 229.056 178.488 229.038 178.523C227.542
    181.502 226.703 183.564 226.485 184.093C227.724 178.806 228.564 173.729
    228.564 168.724C228.564 152.244 223.402 136.929 214.557 124.204C205.71
    111.496 193.198 101.362 178.461 95.2459C179.173 95.2459 179.884 95.2286
    180.596 95.2103C181.033 95.2103 181.471 95.193 181.909 95.1574C182.365
    95.1574 182.822 95.1218 183.277 95.1045C183.971 95.0516 184.626 94.9988
    185.283 94.9459C185.684 94.9103 186.086 94.8757 186.487 94.8228C189.186
    94.5584 191.722 94.1354 194.093 93.6238C194.513 93.5181 194.931 93.4296
    195.333 93.3238C195.771 93.2354 196.209 93.1296 196.647 93.0066C197.139
    92.8835 197.632 92.7594 198.106 92.6191C198.872 92.3903 199.638 92.1604
    200.367 91.9316C200.951 91.7374 201.534 91.5442 202.081 91.3326C202.647
    91.1384 203.213 90.9452 203.741 90.7154C204.288 90.5211 204.799 90.3096
    205.309 90.0808C206.312 89.6577 207.279 89.2174 208.191 88.777C209.34
    88.2126 210.398 87.6492 211.383 87.0848C213.005 86.1686 214.374 85.2696
    215.505 84.4591C216.873 83.4716 217.913 82.6265 218.605 82.0092C218.623
    81.9919 218.623 81.9919 218.642 81.9736C219.336 81.4092 220.339 81.4275
    221.031 81.9909C224.479 84.8811 233.397 93.4469 230.06 102.542C230.042
    102.577 230.023 102.612 230.005 102.647C229.968 102.736 230.005 102.806
    230.06 102.842C230.114 102.894 230.206 102.93 230.278 102.877C230.625
    102.666 230.953 102.454 231.3 102.207C232.066 101.678 232.833 101.114
    233.544 100.497C233.818 100.269 234.091 100.022 234.365 99.7744C234.803
    99.3869 235.24 98.9639 235.66 98.5408C235.861 98.3466 236.061 98.1534
    236.244 97.9418C236.281 97.9062 236.317 97.8717 236.354 97.8361C236.481
    97.713 236.591 97.589 236.7 97.4659C236.828 97.3245 236.956 97.2015 237.065
    97.0784C237.102 97.0428 237.12 97.0083 237.138 96.99C237.339 96.7784 237.521
    96.5669 237.685 96.3554C237.795 96.2323 237.904 96.1266 237.996
    96.0025C238.324 95.615 238.652 95.2093 238.963 94.8218C239.145 94.593
    239.328 94.3632 239.492 94.1344C239.547 94.0815 239.584 94.0286 239.602
    93.9757C239.602 93.9757 239.638 93.9584 239.638 93.9401C239.821 93.7113
    240.004 93.4815 240.149 93.2527C240.35 92.9882 240.55 92.7238 240.714
    92.4594C240.806 92.371 240.86 92.2652 240.915 92.1777C240.988 92.0893
    241.042 92.0018 241.097 91.9133C241.243 91.7191 241.371 91.5259 241.498
    91.3316C241.772 90.9259 242.045 90.5028 242.301 90.0981C242.319 90.0808
    242.338 90.0625 242.338 90.0452C242.612 89.6394 242.848 89.2347 243.086
    88.8289C243.141 88.7587 243.178 88.6875 243.213 88.6174C243.579 88.0357
    243.907 87.454 244.216 86.8896C244.344 86.678 244.453 86.4838 244.563
    86.2906C244.782 85.9031 244.983 85.4974 245.183 85.1272C245.347 84.8272
    245.493 84.5282 245.657 84.2455C245.657 84.2282 245.657 84.2099 245.675
    84.1926C245.693 84.1224 245.73 84.0513 245.767 83.9984C245.968 83.6282
    246.15 83.258 246.314 82.9051C246.441 82.6407 246.57 82.3763 246.679
    82.1292C246.752 81.9879 246.806 81.8648 246.861 81.7417C246.898 81.6716
    246.934 81.6004 246.971 81.5302C247.098 81.2302 247.226 80.9658 247.336
    80.7014C247.373 80.6129 247.408 80.5428 247.463 80.4543C248.102 79.4668
    249.543 79.3265 250.363 80.2428C253.081 83.257 258.042 89.1787 261.581
    95.8764C261.673 96.0879 261.727 96.2994 261.818 96.511C264.955 105.817
    265.338 115.74 261.818 119.776C261.708 119.899 261.599 120.023 261.472
    120.146C262.894 120.358 264.263 120.605 265.557 120.886C266.104 121.009
    266.634 121.133 267.162 121.257C267.436 121.327 267.709 121.398 267.965
    121.468C268.475 121.591 268.968 121.732 269.442 121.874C275.553 123.653
    279.966 126.139 282.922 128.553C283.177 128.765 283.414 128.976 283.651
    129.188C283.688 129.205 283.723 129.223 283.742 129.258C283.979 129.469
    284.198 129.681 284.417 129.893C284.636 130.104 284.855 130.316 285.056
    130.544C285.257 130.756 285.457 130.967 285.621 131.179C285.931 131.532
    286.205 131.884 286.442 132.219C287.153 133.259 287.554 134.176 287.664
    134.881C287.676 135.024 287.694 135.147 287.694 135.271Z"
    fill="#F25A70" />
  <path
    d="M68.2595 152.023C52.243 152.023 44.1942 167.837 43.3376 174.994C43.286
    175.423 43.7985 175.681 44.1416 175.406C46.8863 173.207 49.8783 172.629
    49.8783 172.629C49.8783 172.629 52.0841 198.917 71.9366 198.917C96.1996
    198.917 93.9938 152.023 68.2595 152.023Z"
    fill="#828282" />
  <path
    d="M150.229 271.569C162.201 273.586 184.799 275.297 191.049 269.257C195.094
    265.349 181.816 247.918 169.358 236.24C166.236 233.157 160.542 230.889
    155.02 230.889C143.241 230.889 133.698 240.112 133.698 251.494C133.699
    261.655 140.223 269.878 150.229 271.569Z"
    fill="#F4F1E4" />
  <path
    d="M272.41 115.397C275.177 104.711 269.522 90.8089 255.864 75.6146C254.132
    73.6875 251.626 72.582 248.991 72.582C245.345 72.582 242.056 74.6749 240.615
    77.9139C239.829 79.6814 237.925 83.6902 235.187 87.7377C232.418 82.6845
    228.321 78.7794 225.79 76.6641C224.127 75.2749 222.006 74.5102 219.814
    74.5102C217.544 74.5102 215.369 75.3248 213.689 76.8044C210.727 79.4139
    199.682 87.7916 179.874 88.1811C169.077 83.9089 157.631 81.7448 145.829
    81.7448C112.59 81.7448 82.17 99.3442 66.4429 127.674C65.4389 129.495 61.6482
    137.658 58.954 146.424C45.1476 150.94 37.2157 164.994 36.0969 174.16C35.837
    176.29 36.5326 178.43 38.005 180.031C39.4836 181.639 41.6084 182.561 43.8352
    182.561C44.0478 182.561 44.2604 182.552 44.4709 182.535C45.6243 186.369
    47.4629 190.828 50.3759 194.832C47.7502 215.297 47.7186 236.694 47.7186
    237.637C47.7186 260.277 56.7924 279.464 73.9581 293.121C89.6999 305.646
    111.57 312.543 135.54 312.543C187.227 312.543 223.326 282.139 223.326
    238.606C223.326 217.332 232.062 190.343 233.328 186.543C234.617 183.321
    251.305 143.449 286.634 143.449C291.044 143.449 294.624 140.228 294.962
    135.957C295.525 128.867 287.207 119.983 272.41 115.397ZM190.619
    285.887C176.63 296.826 157.068 302.85 135.536 302.85C81.809 302.85 57.7596
    270.099 57.7596 237.641C57.7596 237.423 57.7922 217.362 60.0948
    198.044C63.3057 200.201 67.2038 201.561 71.9354 201.561C78.1856 201.561
    83.3813 198.893 86.9626 193.845C89.983 189.585 91.6468 183.792 91.6468
    177.534C91.6468 163.963 83.5349 149.556 68.5067 149.396C70.9335 141.402
    74.4306 133.81 75.2873 132.256C89.2653 107.079 116.296 91.4384 145.834
    91.4384C156.796 91.4384 167.404 93.5364 177.366 97.6744C191.543 103.558
    203.614 113.242 212.27 125.677C221.129 138.424 225.812 153.308 225.812
    168.724C225.812 176.958 223.444 185.369 220.703 195.109C217.236 207.423
    213.306 221.381 213.306 238.608C213.306 257.932 205.462 274.281 190.619
    285.887ZM79.2738 177.484C64.5328 165.021 51.1452 169.312 49.0488 170.1C48.71
    170.179 48.1311 170.331 47.385 170.599C50.0444 163.984 56.6693 154.667
    68.2604 154.667C80.022 154.667 86.1765 166.169 86.1765 177.532C86.1765
    182.734 84.8525 187.464 82.4499 190.853C79.8999 194.449 76.3628 196.272
    71.9364 196.272C64.9169 196.272 59.5602 192.415 56.0136 184.807C54.1719
    180.856 53.2911 176.849 52.8954 174.498C56.7008 173.659 65.6526 172.991
    75.6714 181.462C76.1902 181.902 76.8332 182.116 77.4721 182.116C78.234
    182.116 78.9917 181.811 79.5316 181.213C80.5261 180.116 80.4104 178.446
    79.2738 177.484ZM218.604 82.0143C218.948 81.7112 219.38 81.5607 219.813
    81.5607C220.241 81.5607 220.669 81.7072 221.017 81.998C224.063 84.5434
    231.347 91.4994 230.744 99.3422C227.698 101.661 224.254 103.198 220.461
    103.198C218.949 103.198 217.724 104.382 217.724 105.843C217.724 107.303
    218.949 108.487 220.461 108.487C236.247 108.487 246.289 89.678 249.694
    82.0977C255.44 86.6536 259.661 96.3625 261.048 104.618C261.981 110.173
    261.646 114.955 260.228 117.372C257.103 116.956 253.688 116.699 249.872
    116.699C248.361 116.699 247.136 117.882 247.136 119.343C247.136 120.803
    248.361 121.987 249.872 121.987C271.019 121.987 279.317 129.541 282.341
    133.898C254.92 135.797 238.802 155.717 231.277 168.311C231.194 151.99
    226.201 136.236 216.812 122.729C208.558 110.872 197.385 101.38 184.311
    95.0038C203.884 93.5232 215.195 85.0163 218.604 82.0143Z"
    fill="#3A4042" />
  <path
    d="M120.133 195.229C127.625 195.229 133.698 189.36 133.698 182.121C133.698
    174.882 127.625 169.014 120.133 169.014C112.642 169.014 106.569 174.882
    106.569 182.121C106.569 189.36 112.642 195.229 120.133 195.229Z"
    fill="#3A4042" />
  <path
    d="M171.979 276.111C161.769 276.111 151.668 274.495 149.758
    274.173H149.757C138.515 272.273 130.962 263.159 130.962 251.495C130.962
    238.675 141.755 228.246 155.021 228.246C161.139 228.246 167.534 230.658
    171.315 234.391C180.225 242.743 194.463 259.074 194.526 267.14C194.542
    269.189 193.697 270.44 192.985 271.127C188.974 275.002 180.439 276.111
    171.979 276.111ZM150.699 268.965C166.094 271.56 184.674 271.68 189.116
    267.389C190.031 264.862 181.226 251.048 167.455 238.138C164.689 235.408
    159.596 233.534 155.022 233.534C144.773 233.534 136.436 241.592 136.436
    251.496C136.434 260.502 142.167 267.522 150.699 268.965Z"
    fill="#3A4042" />
</svg>
