<svg
  viewBox="0 0 320 320"
  fill="none"
  xmlns="http://www.w3.org/2000/svg"
  aria-labelledby="title desc"
  role="img">
  <title id="title">Logo da CollabCode</title>
  <desc id="desc">
    Tem o desenho de um passáro com cabelo vermelho chamado Gueio e sobre ele
    tem o texto CollabCode
  </desc>

  <path
    d="M188.787 301.601C257.165 301.601 312.597 248.036 312.597 181.961C312.597
    115.885 257.165 62.3201 188.787 62.3201C120.408 62.3201 64.9761 115.885
    64.9761 181.961C64.9761 248.036 120.408 301.601 188.787 301.601Z"
    fill="#3A4042" />
  <path
    d="M26.9762 166.732C12.9193 163.412 4.69061 150.77 8.21615 136.858C10.3367
    128.484 16.5049 122.116 24.2789 119.689L27.4319 130.078C23.2307 131.252
    20.0451 134.694 18.8601 139.377C16.789 147.551 21.1165 154.166 29.6472
    156.184C38.1769 158.198 45.1764 154.262 47.2444 146.088C48.4315 141.405
    47.2665 136.866 44.083 134.018L51.8444 126.207C57.6 131.762 60.0279 140.164
    57.8905 148.607C54.3681 162.518 41.0331 170.057 26.9762 166.732Z"
    fill="#3A4042" />
  <path
    d="M47.7117 119.857C38.7737 114.6 36.1816 103.7 41.552 95.1779C46.9203
    86.6558 58.1305 83.8724 67.0696 89.1331C76.0087 94.3887 78.5997 105.288
    73.2293 113.813C67.862 122.332 56.6519 125.115 47.7117 119.857ZM61.5929
    97.8291C57.3307 95.3213 52.6854 96.564 50.3112 100.332C47.9359 104.1 48.9294
    108.655 53.1905 111.163C57.4517 113.669 62.0959 112.428 64.4701
    108.661C66.8444 104.89 65.8498 100.335 61.5929 97.8291Z"
    fill="#3A4042" />
  <path
    d="M47.835 62.1329L55.0144 54.6766L92.5567 88.4507L85.373 95.904L47.835
    62.1329Z"
    fill="#3A4042" />
  <path
    d="M64.1689 46.3203L72.2472 39.7843L105.165 77.7665L97.0849 84.2994L64.1689
    46.3203Z"
    fill="#3A4042" />
  <path
    d="M124.103 27.5239L140.624 57.4692L131.328 62.26L129.775 59.4441C128.984
    62.7746 126.707 65.7177 122.555 67.8574C114.434 72.0411 103.938 68.6028
    99.0161 59.6749C94.0941 50.7532 96.9861 40.4148 105.107 36.2311C109.259
    34.0945 113.056 33.9053 116.358 35.1277L114.804 32.3117L124.103
    27.5239ZM123.069 47.2874C120.588 42.7935 115.935 41.5762 111.658
    43.7769C107.383 45.9827 105.835 50.3922 108.313 54.8861C110.794 59.378
    115.444 60.5943 119.722 58.3936C123.996 56.1909 125.544 51.7793 123.069
    47.2874Z"
    fill="#3A4042" />
  <path
    d="M178.609 32.3199C180.624 42.2464 174.729 51.3146 165.7 53.022C161.078
    53.8966 157.391 53.0037 154.606 50.9037L155.238 54.0329L144.899
    55.9895L135.455 9.35909L145.793 7.40247L149.127 23.8598C150.889 20.8954
    153.957 18.7263 158.575 17.8517C167.606 16.1442 176.601 22.3985 178.609
    32.3199ZM168.271 34.2765C167.258 29.2812 163.178 26.8019 158.423
    27.7009C153.668 28.6019 150.853 32.386 151.866 37.3782C152.878 42.3765
    156.958 44.8549 161.716 43.9538C166.471 43.0559 169.281 39.2728 168.271
    34.2765Z"
    fill="#3A4042" />
  <path
    d="M189.827 50.1614L185.34 45.5403L186.131 21.6612L190.913 17.329L197.651
    17.5354L202.138 22.1544L201.945 27.9216L199.207 27.8392L199.369
    22.9548L196.313 19.8022L192.098 19.672L188.839 22.6283L188.108
    44.744L191.164 47.8935L195.376 48.0237L198.638 45.0705L198.797
    40.184L201.536 40.2715L201.346 46.0356L196.564 50.3708L189.827 50.1614Z"
    fill="#3A4042" />
  <path
    d="M210.545 51.8505L206.863 46.6061L211.508 23.1408L216.932 19.5825L224.519
    20.9849L228.201 26.2263L223.559 49.6945L218.132 53.2529L210.545
    51.8505ZM212.232 49.8145L217.338 50.7583L221.04 48.3318L225.342
    26.5985L222.831 23.0219L217.725 22.0802L214.025 24.5066L209.72
    46.2379L212.232 49.8145Z"
    fill="#3A4042" />
  <path
    d="M231.95 56.9251L229.201 51.1773L237.74 28.7544L243.695 26.0981L248.639
    27.8565L251.263 33.345L257.787 16.2113L260.362 17.1255L243.619
    61.0783L241.248 60.2353L242.67 56.1095L236.896 58.6864L231.95
    56.9251ZM233.961 55.1861L236.927 56.2386L243.691 53.2183L250.144
    36.2728L247.021 29.7399L244.056 28.6843L239.998 30.4954L232.087
    51.2617L233.961 55.1861Z"
    fill="#3A4042" />
  <path
    d="M252.984 65.675L251.223 59.5692L263.378 38.7633L269.694 37.064L276.178
    40.5979L277.937 46.7016L271.62 57.52L259.446 50.8803L254.06 60.1021L255.259
    64.2645L259.539 66.6004L263.846 65.4421L265.917 61.8949L268.302
    63.1946L265.784 67.5116L259.467 69.2109L252.984 65.675ZM260.617
    48.8728L270.408 54.2098L275.1 46.1677L273.903 42.0074L269.616
    39.6714L265.314 40.8297L260.617 48.8728Z"
    fill="#3A4042" />
  <path
    d="M292.672 168.098C258.827 168.098 243.759 206.123 243.296 207.309C242.209
    210.55 234.752 233.552 234.752 251.943C234.752 286.702 204.917 306.814
    168.723 306.814C132.229 306.814 102.663 286.399 102.663 251.148C102.663
    251.148 102.663 231.672 105.117 214.379C99.296 208.017 98.4435 197.824
    98.4435 197.824C98.4435 197.824 95.9914 198.287 93.7477 200.093C93.4699
    200.317 93.0458 200.101 93.0879 199.754C93.7509 194.315 99.4517 182.772
    110.743 181.11C112.718 173.39 116.459 165.221 117.311 163.674C128.758
    143.056 151.261 129.045 177.162 129.045C186.663 129.045 195.701 130.925
    203.915 134.338C226.748 134.338 237.776 122.626 237.776 122.626C242.902
    122.626 249.082 135.589 246.219 140.417C246.149 140.536 246.305 140.673
    246.425 140.6C255.936 134.744 261.298 120.298 261.298 120.298C272.161
    125.546 277.862 149.128 272.026 154.767C290.772 157.557 295.815 168.098
    292.672 168.098Z"
    fill="#FFFCEE" />
  <path
    d="M167.085 306.786C131.346 306.189 102.658 285.879 102.658 251.154C102.658
    251.154 102.358 246.17 103.201 234.441C140.572 228.765 122.203 280.519
    167.085 306.786Z"
    fill="#EAE6DA" />
  <path
    d="M293.542 167.172C293.542 167.751 293.243 168.098 292.673 168.098C292.134
    168.098 291.611 168.112 291.073 168.126C261.042 169.095 247.725 197.217
    245.467 202.566C245.452 202.595 245.437 202.624 245.422 202.653C244.194
    205.096 243.506 206.788 243.326 207.222C244.344 202.885 245.032 198.72
    245.032 194.614C245.032 181.095 240.797 168.53 233.541 158.091C226.284
    147.666 216.02 139.352 203.93 134.335C204.514 134.335 205.097 134.32 205.681
    134.306C206.04 134.306 206.399 134.292 206.759 134.262C207.132 134.262
    207.507 134.234 207.88 134.219C208.449 134.175 208.988 134.132 209.526
    134.089C209.856 134.06 210.185 134.031 210.513 133.987C212.728 133.77
    214.807 133.422 216.753 133.003C217.097 132.917 217.441 132.845 217.771
    132.757C218.13 132.685 218.49 132.599 218.849 132.497C219.253 132.395
    219.657 132.295 220.045 132.179C220.673 131.991 221.302 131.802 221.9
    131.614C222.379 131.456 222.858 131.296 223.306 131.123C223.771 130.965
    224.234 130.805 224.668 130.617C225.118 130.458 225.537 130.284 225.955
    130.096C226.778 129.749 227.571 129.387 228.319 129.026C229.262 128.563
    230.129 128.101 230.937 127.638C232.269 126.887 233.392 126.149 234.319
    125.484C235.441 124.675 236.294 123.98 236.862 123.475C236.877 123.46
    236.877 123.46 236.892 123.446C237.46 122.983 238.283 122.998 238.853
    123.46C241.68 125.832 248.998 132.858 246.259 140.319C246.245 140.348 246.23
    140.377 246.214 140.406C246.185 140.478 246.214 140.536 246.259
    140.565C246.305 140.608 246.379 140.637 246.439 140.593C246.723 140.419
    246.993 140.246 247.277 140.044C247.905 139.61 248.534 139.148 249.118
    138.641C249.342 138.453 249.567 138.251 249.791 138.049C250.15 137.73
    250.509 137.384 250.853 137.037C251.017 136.878 251.182 136.718 251.332
    136.546C251.361 136.517 251.392 136.488 251.421 136.459C251.527 136.357
    251.616 136.257 251.705 136.155C251.811 136.039 251.915 135.938 252.004
    135.837C252.034 135.808 252.05 135.779 252.064 135.765C252.229 135.591
    252.379 135.418 252.513 135.244C252.602 135.142 252.693 135.056 252.767
    134.955C253.037 134.637 253.306 134.304 253.561 133.986C253.71 133.798
    253.86 133.61 253.994 133.421C254.04 133.378 254.069 133.335 254.084
    133.291C254.084 133.291 254.113 133.277 254.113 133.263C254.263 133.075
    254.412 132.887 254.532 132.698C254.696 132.482 254.862 132.264 254.996
    132.048C255.071 131.975 255.116 131.889 255.16 131.816C255.22 131.743
    255.266 131.671 255.31 131.599C255.43 131.44 255.534 131.281 255.639
    131.122C255.864 130.79 256.089 130.443 256.298 130.11C256.313 130.096
    256.328 130.082 256.328 130.067C256.552 129.734 256.746 129.401 256.941
    129.069C256.986 129.011 257.016 128.953 257.046 128.895C257.345 128.418
    257.615 127.941 257.869 127.478C257.975 127.304 258.064 127.146 258.154
    126.987C258.333 126.669 258.498 126.336 258.662 126.033C258.797 125.787
    258.917 125.542 259.051 125.31C259.051 125.296 259.051 125.282 259.066
    125.267C259.081 125.209 259.111 125.151 259.141 125.108C259.305 124.804
    259.455 124.501 259.59 124.212C259.695 123.995 259.799 123.778 259.889
    123.575C259.949 123.459 259.994 123.359 260.038 123.257C260.068 123.199
    260.098 123.141 260.128 123.083C260.233 122.837 260.337 122.62 260.427
    122.404C260.456 122.332 260.487 122.274 260.532 122.201C261.056 121.392
    262.238 121.276 262.911 122.028C265.14 124.5 269.211 129.358 272.114
    134.852C272.188 135.026 272.234 135.199 272.308 135.373C274.881 143.007
    275.196 151.147 272.308 154.458C272.219 154.56 272.128 154.661 272.024
    154.762C273.191 154.936 274.313 155.139 275.376 155.369C275.825 155.47
    276.259 155.572 276.693 155.673C276.917 155.731 277.142 155.789 277.351
    155.847C277.77 155.949 278.174 156.064 278.564 156.18C283.576 157.64 287.198
    159.679 289.621 161.659C289.831 161.833 290.025 162.006 290.22 162.18C290.25
    162.194 290.28 162.208 290.295 162.238C290.49 162.412 290.668 162.585
    290.848 162.759C291.028 162.932 291.207 163.105 291.373 163.293C291.537
    163.467 291.702 163.64 291.837 163.814C292.091 164.103 292.315 164.393
    292.51 164.667C293.094 165.521 293.423 166.272 293.513 166.851C293.527
    166.97 293.542 167.07 293.542 167.172Z"
    fill="#F25A70" />
  <path
    d="M113.527 180.915C100.388 180.915 93.7855 193.889 93.0825 199.759C93.0404
    200.111 93.4603 200.323 93.7424 200.097C95.9945 198.293 98.4487 197.818
    98.4487 197.818C98.4487 197.818 100.258 219.385 116.544 219.385C136.448
    219.385 134.639 180.915 113.527 180.915Z"
    fill="#828282" />
  <path
    d="M180.772 278.984C190.593 280.64 209.132 282.042 214.259 277.088C217.576
    273.882 206.685 259.582 196.465 250.002C193.903 247.473 189.233 245.613
    184.703 245.613C175.04 245.613 167.211 253.178 167.211 262.516C167.21
    270.852 172.562 277.597 180.772 278.984Z"
    fill="#F4F1E4" />
  <path
    d="M281.002 150.868C283.272 142.101 278.633 130.698 267.428 118.232C266.008
    116.651 263.952 115.745 261.79 115.745C258.798 115.745 256.1 117.461 254.918
    120.119C254.273 121.568 252.712 124.858 250.466 128.177C248.195 124.032
    244.833 120.827 242.757 119.093C241.393 117.953 239.652 117.325 237.855
    117.325C235.992 117.325 234.208 117.993 232.831 119.207C230.401 121.348
    221.339 128.221 205.089 128.54C196.232 125.036 186.843 123.26 177.16
    123.26C149.892 123.26 124.938 137.698 112.035 160.938C111.211 162.432
    108.101 169.129 105.891 176.321C94.5664 180.026 88.0594 191.555 87.1417
    199.074C86.9281 200.822 87.4985 202.577 88.7077 203.89C89.9211 205.209
    91.6638 205.965 93.4898 205.965C93.6645 205.965 93.8381 205.958 94.0118
    205.945C94.9579 209.089 96.467 212.748 98.8559 216.033C96.7017 232.821
    96.6754 250.374 96.6754 251.148C96.6754 269.722 104.119 285.461 118.201
    296.665C131.115 306.939 149.056 312.598 168.721 312.598C211.122 312.598
    240.736 287.656 240.736 251.943C240.736 234.491 247.902 212.35 248.942
    209.233C249.999 206.59 263.689 173.881 292.672 173.881C296.289 173.881
    299.227 171.239 299.504 167.735C299.965 161.919 293.142 154.631 281.002
    150.868ZM213.905 290.73C202.43 299.704 186.382 304.645 168.718
    304.645C124.643 304.645 104.915 277.778 104.915 251.15C104.915 250.972
    104.941 234.515 106.83 218.667C109.464 220.436 112.661 221.552 116.544
    221.552C121.671 221.552 125.933 219.362 128.871 215.221C131.35 211.727
    132.715 206.975 132.715 201.84C132.715 190.706 126.059 178.889 113.732
    178.757C115.723 172.2 118.592 165.972 119.294 164.697C130.76 144.044 152.936
    131.213 177.166 131.213C186.158 131.213 194.861 132.934 203.034
    136.328C214.664 141.154 224.566 149.099 231.668 159.3C238.936 169.756
    242.777 181.967 242.777 194.614C242.777 201.368 240.834 208.269 238.585
    216.258C235.741 226.361 232.517 237.811 232.517 251.943C232.517 267.798
    226.082 281.209 213.905 290.73ZM122.562 201.802C110.469 191.578 99.4874
    195.099 97.7667 195.745C97.4889 195.811 97.0142 195.935 96.4018
    196.154C98.5834 190.728 104.018 183.084 113.527 183.084C123.177 183.084
    128.225 192.521 128.225 201.842C128.225 206.11 127.139 209.991 125.168
    212.77C123.076 215.721 120.174 217.216 116.544 217.216C110.785 217.216
    106.39 214.053 103.481 207.812C101.97 204.571 101.248 201.284 100.923
    199.355C104.044 198.666 111.388 198.118 119.607 205.068C120.033 205.428
    120.56 205.605 121.085 205.605C121.71 205.605 122.331 205.355 122.775
    204.865C123.589 203.961 123.496 202.591 122.562 201.802ZM236.862
    123.483C237.144 123.234 237.499 123.111 237.854 123.111C238.204 123.111
    238.556 123.231 238.841 123.469C241.339 125.556 247.315 131.263 246.82
    137.697C244.322 139.598 241.497 140.859 238.385 140.859C237.146 140.859
    236.14 141.831 236.14 143.029C236.14 144.227 237.146 145.198 238.385
    145.198C251.335 145.198 259.573 129.769 262.367 123.549C267.081 127.286
    270.544 135.251 271.682 142.024C272.447 146.581 272.173 150.504 271.009
    152.486C268.445 152.145 265.644 151.934 262.513 151.934C261.273 151.934
    260.268 152.905 260.268 154.103C260.268 155.301 261.273 156.272 262.513
    156.272C279.86 156.272 286.667 162.47 289.148 166.044C266.654 167.601 253.43
    183.944 247.257 194.275C247.189 180.886 243.093 167.962 235.39
    156.882C228.619 147.155 219.453 139.368 208.728 134.137C224.787 132.924
    234.066 125.946 236.862 123.483Z"
    fill="#3A4042" />
  <path
    d="M156.083 216.359C162.229 216.359 167.211 211.545 167.211 205.606C167.211
    199.667 162.229 194.853 156.083 194.853C149.937 194.853 144.955 199.667
    144.955 205.606C144.955 211.545 149.937 216.359 156.083 216.359Z"
    fill="#3A4042" />
  <path
    d="M198.614 282.711C190.238 282.711 181.953 281.385 180.386
    281.122H180.385C171.162 279.564 164.966 272.086 164.966 262.518C164.966
    252.001 173.82 243.446 184.703 243.446C189.721 243.446 194.968 245.425
    198.069 248.487C205.379 255.338 217.059 268.736 217.111 275.353C217.124
    277.034 216.431 278.06 215.846 278.623C212.556 281.801 205.554 282.711
    198.614 282.711ZM181.157 276.849C193.786 278.978 209.028 279.076 212.672
    275.555C213.424 273.483 206.2 262.151 194.902 251.559C192.632 249.319
    188.454 247.782 184.703 247.782C176.295 247.782 169.455 254.392 169.455
    262.517C169.455 269.906 174.157 275.664 181.157 276.849Z"
    fill="#3A4042" />
  <path
    d="M44.085 134.019C47.2675 136.867 48.4325 141.407 47.2454 146.089C45.1764
    154.263 38.1768 158.201 29.6482 156.185C21.1174 154.167 16.7889 147.552
    18.8611 139.378C20.0461 134.696 23.2317 131.253 27.4329 130.079L24.2799
    119.691C16.5069 122.117 10.3388 128.485 8.21713 136.859C4.69159 150.771
    12.9203 163.412 26.9772 166.733C41.0341 170.057 54.3691 162.52 57.8925
    148.608C60.0299 140.166 57.602 131.763 51.8465 126.208L44.085 134.019Z"
    fill="#3A4042" />
</svg>
