<svg
  viewBox="0 0 2020 320"
  fill="none"
  xmlns="http://www.w3.org/2000/svg"
  aria-labelledby="title desc"
  rol="img">
  <title id="title">Logo da CollabCode</title>
  <desc id="desc">
    Tem o desenho de um passáro com cabelo vermelho chamado Gueio e na frente
    dele um texto escrito CollabCode na cor bege
  </desc>

  <path
    d="M161.629 299.122C245.833 299.122 314.093 233.831 314.093 153.289C314.093
    72.7476 245.833 7.45627 161.629 7.45627C77.4248 7.45627 9.16406 72.7476
    9.16406 153.289C9.16406 233.831 77.4248 299.122 161.629 299.122Z"
    fill="#3A4042" />
  <path
    d="M289.56 136.391C247.881 136.391 229.326 182.742 228.756 184.187C227.416
    188.137 218.235 216.174 218.235 238.592C218.235 280.96 181.495 305.476
    136.924 305.476C91.9837 305.476 55.5757 280.59 55.5757 237.623C55.5757
    237.623 55.5757 213.884 58.5971 192.805C51.4294 185.05 50.379 172.626 50.379
    172.626C50.379 172.626 47.3597 173.189 44.5966 175.391C44.2553 175.663
    43.7323 175.401 43.7844 174.978C44.6009 168.348 51.6208 154.279 65.5256
    152.252C67.958 142.841 72.5636 132.884 73.614 130.999C87.7089 105.867
    115.421 88.789 147.316 88.789C159.016 88.789 170.145 91.08 180.261
    95.2392C208.377 95.2392 221.957 80.9643 221.957 80.9643C228.27 80.9643
    235.879 96.7636 232.354 102.65C232.267 102.795 232.459 102.963 232.605
    102.873C244.318 95.7352 250.921 78.1272 250.921 78.1272C264.298 84.5243
    271.319 113.269 264.132 120.142C287.22 123.543 293.43 136.391 289.56
    136.391Z"
    fill="#FFFCEE" />
  <path
    d="M134.908 305.441C90.8971 304.713 55.571 279.959 55.571 237.631C55.571
    237.631 55.2021 231.554 56.2407 217.258C102.259 210.34 79.6395 273.423
    134.908 305.441Z"
    fill="#EAE6DA" />
  <path
    d="M290.63 135.263C290.63 135.968 290.261 136.391 289.561 136.391C288.898
    136.391 288.254 136.409 287.591 136.427C250.61 137.607 234.213 171.886
    231.43 178.407C231.412 178.443 231.393 178.477 231.375 178.513C229.864
    181.492 229.017 183.553 228.796 184.083C230.048 178.796 230.896 173.719
    230.896 168.714C230.896 152.236 225.682 136.921 216.746 124.196C207.81
    111.489 195.17 101.356 180.283 95.2408C181.002 95.2408 181.72 95.2233
    182.439 95.2051C182.881 95.2051 183.324 95.1877 183.766 95.152C184.226
    95.152 184.688 95.1164 185.148 95.0989C185.848 95.0466 186.511 94.9935
    187.174 94.9404C187.579 94.9048 187.985 94.8706 188.39 94.8175C191.117
    94.5528 193.679 94.1302 196.073 93.6182C196.498 93.5128 196.921 93.424
    197.327 93.3186C197.769 93.2298 198.212 93.1244 198.654 93.0015C199.151
    92.8786 199.649 92.7542 200.128 92.6138C200.901 92.3848 201.675 92.1549
    202.412 91.9266C203.002 91.7324 203.591 91.5389 204.144 91.3273C204.715
    91.1331 205.287 90.9404 205.821 90.7106C206.373 90.5157 206.889 90.3048
    207.405 90.0757C208.418 89.6524 209.395 89.2124 210.316 88.7717C211.476
    88.2073 212.545 87.6444 213.54 87.08C215.179 86.1637 216.561 85.2648 217.705
    84.4546C219.087 83.4669 220.137 82.6218 220.836 82.0044C220.855 81.9869
    220.855 81.9869 220.873 81.9688C221.574 81.4044 222.588 81.4226 223.287
    81.9862C226.77 84.8764 235.779 93.4415 232.407 102.536C232.39 102.571 232.37
    102.606 232.352 102.641C232.315 102.73 232.352 102.8 232.407 102.836C232.463
    102.889 232.555 102.924 232.629 102.871C232.978 102.66 233.31 102.448
    233.661 102.201C234.435 101.672 235.209 101.108 235.928 100.492C236.204
    100.263 236.48 100.016 236.757 99.7688C237.199 99.3811 237.642 98.9586
    238.066 98.5353C238.268 98.3411 238.47 98.1477 238.655 97.936C238.693
    97.9004 238.729 97.8662 238.766 97.8306C238.895 97.7077 239.006 97.5833
    239.116 97.4604C239.245 97.3193 239.375 97.1957 239.485 97.0728C239.522
    97.0371 239.54 97.0029 239.558 96.9848C239.761 96.7731 239.945 96.5615
    240.111 96.3498C240.221 96.2269 240.332 96.1215 240.425 95.9971C240.756
    95.6095 241.088 95.2037 241.402 94.8168C241.585 94.5877 241.77 94.3578
    241.936 94.1288C241.992 94.0764 242.029 94.0233 242.047 93.9702C242.047
    93.9702 242.084 93.9528 242.084 93.9346C242.268 93.7062 242.453 93.4764
    242.6 93.2473C242.803 92.9833 243.005 92.7186 243.171 92.4538C243.263
    92.3658 243.318 92.2597 243.374 92.1724C243.447 92.0844 243.502 91.9964
    243.558 91.9084C243.705 91.7142 243.834 91.5208 243.963 91.3266C244.239
    90.9208 244.515 90.4975 244.774 90.0931C244.792 90.0757 244.811 90.0575
    244.811 90.04C245.088 89.6342 245.326 89.2298 245.567 88.824C245.622 88.7535
    245.66 88.6822 245.695 88.6124C246.064 88.0306 246.396 87.4488 246.709
    86.8844C246.837 86.6735 246.948 86.4786 247.059 86.2858C247.28 85.8982
    247.483 85.4924 247.685 85.1222C247.85 84.8226 247.999 84.5237 248.164
    84.2408C248.164 84.2233 248.164 84.2051 248.182 84.1877C248.201 84.1178
    248.238 84.0466 248.275 83.9935C248.478 83.6233 248.662 83.2531 248.828
    82.9004C248.956 82.6364 249.086 82.3717 249.197 82.1244C249.27 81.9833
    249.325 81.8604 249.381 81.7375C249.418 81.6669 249.454 81.5957 249.491
    81.5258C249.62 81.2255 249.75 80.9615 249.86 80.6968C249.897 80.608 249.934
    80.5382 249.989 80.4495C250.634 79.4626 252.089 79.3222 252.919
    80.2386C255.663 83.2524 260.675 89.1738 264.25 95.8713C264.343 96.0822
    264.399 96.2938 264.49 96.5055C267.659 105.811 268.046 115.733 264.49
    119.769C264.379 119.892 264.269 120.016 264.14 120.139C265.577 120.351
    266.96 120.598 268.267 120.879C268.82 121.002 269.355 121.127 269.888
    121.249C270.165 121.32 270.442 121.391 270.699 121.461C271.215 121.584
    271.713 121.726 272.192 121.867C278.365 123.647 282.824 126.132 285.809
    128.546C286.067 128.757 286.306 128.969 286.546 129.18C286.583 129.198
    286.619 129.216 286.638 129.25C286.877 129.462 287.099 129.673 287.319
    129.885C287.541 130.097 287.762 130.308 287.965 130.537C288.168 130.748
    288.37 130.96 288.536 131.172C288.85 131.524 289.126 131.876 289.365
    132.212C290.084 133.251 290.489 134.168 290.6 134.873C290.612 135.016 290.63
    135.14 290.63 135.263Z"
    fill="#F25A70" />
  <path
    d="M68.9568 152.015C52.7768 152.015 44.6459 167.828 43.7805 174.984C43.7285
    175.412 44.2462 175.671 44.5927 175.396C47.3654 173.196 50.3879 172.619
    50.3879 172.619C50.3879 172.619 52.6163 198.906 72.6713 198.906C97.1822
    198.906 94.9535 152.015 68.9568 152.015Z"
    fill="#828282" />
  <path
    d="M151.761 271.553C163.856 273.57 186.684 275.281 192.998 269.242C197.084
    265.334 183.67 247.904 171.086 236.226C167.932 233.144 162.18 230.876
    156.602 230.876C144.702 230.876 135.062 240.098 135.062 251.479C135.062
    261.64 141.653 269.863 151.761 271.553Z"
    fill="#F4F1E4" />
  <path
    d="M275.19 115.391C277.984 104.705 272.272 90.8037 258.475 75.6102C256.725
    73.6829 254.194 72.5779 251.531 72.5779C247.847 72.5779 244.525 74.6706
    243.07 77.9098C242.276 79.6771 240.352 83.6858 237.586 87.7324C234.789 82.68
    230.65 78.7746 228.093 76.6597C226.414 75.2706 224.271 74.5062 222.057
    74.5062C219.763 74.5062 217.566 75.3208 215.869 76.8C212.877 79.4095 201.719
    87.7869 181.708 88.176C170.802 83.904 159.239 81.7404 147.316
    81.7404C113.738 81.7404 83.0079 99.3382 67.1203 127.666C66.1061 129.487
    62.2766 137.65 59.555 146.416C45.6077 150.932 37.5948 164.984 36.4647
    174.15C36.2021 176.28 36.9048 178.42 38.3921 180.021C39.8859 181.629 42.0324
    182.55 44.2819 182.55C44.4967 182.55 44.7114 182.542 44.9241 182.524C46.0893
    186.359 47.9466 190.817 50.8893 194.821C48.2368 215.285 48.2049 236.681
    48.2049 237.623C48.2049 260.263 57.3713 279.448 74.7125 293.104C90.6146
    305.628 112.708 312.524 136.922 312.524C189.137 312.524 225.605 282.123
    225.605 238.592C225.605 217.32 234.43 190.332 235.709 186.532C237.011
    183.311 253.869 143.44 289.559 143.44C294.014 143.44 297.63 140.22 297.972
    135.949C298.54 128.86 290.137 119.977 275.19 115.391ZM192.563
    285.871C178.432 296.809 158.671 302.833 136.919 302.833C82.6434 302.833
    58.3483 270.084 58.3483 237.627C58.3483 237.409 58.3813 217.349 60.7074
    198.033C63.9511 200.189 67.889 201.55 72.6688 201.55C78.9828 201.55 84.2318
    198.881 87.8492 193.833C90.9008 189.574 92.5816 183.782 92.5816
    177.524C92.5816 163.953 84.3868 149.548 69.2051 149.387C71.6567 141.394
    75.1895 133.802 76.0549 132.248C90.1755 107.073 117.482 91.4335 147.321
    91.4335C158.395 91.4335 169.111 93.5309 179.176 97.6691C193.497 103.553
    205.691 113.236 214.435 125.67C223.384 138.416 228.115 153.299 228.115
    168.714C228.115 176.948 225.723 185.359 222.954 195.097C219.453 207.411
    215.483 221.368 215.483 238.594C215.483 257.917 207.558 274.265 192.563
    285.871ZM80.0822 177.473C65.1907 165.012 51.6665 169.302 49.5487
    170.09C49.2064 170.169 48.6217 170.321 47.8679 170.589C50.5544 163.975
    57.2469 154.657 68.9563 154.657C80.838 154.657 87.0553 166.16 87.0553
    177.521C87.0553 182.724 85.7181 187.454 83.2904 190.842C80.7143 194.438
    77.1417 196.261 72.6699 196.261C65.5788 196.261 60.1673 192.404 56.5846
    184.796C54.7241 180.846 53.8342 176.839 53.4345 174.488C57.2788 173.649
    66.3218 172.981 76.4432 181.452C76.9673 181.891 77.6165 182.105 78.262
    182.105C79.032 182.105 79.7975 181.801 80.3424 181.203C81.3471 180.105
    81.2301 178.436 80.0822 177.473ZM220.834 82.0095C221.182 81.7069 221.618
    81.5564 222.056 81.5564C222.488 81.5564 222.92 81.7026 223.272
    81.9935C226.349 84.5389 233.707 91.4946 233.098 99.3368C230.021 101.655
    226.543 103.193 222.71 103.193C221.183 103.193 219.945 104.376 219.945
    105.836C219.945 107.297 221.183 108.481 222.71 108.481C238.657 108.481
    248.801 89.6727 252.241 82.0931C258.046 86.6487 262.311 96.3571 263.711
    104.612C264.654 110.167 264.316 114.949 262.883 117.365C259.726 116.949
    256.276 116.692 252.421 116.692C250.894 116.692 249.657 117.876 249.657
    119.336C249.657 120.796 250.894 121.98 252.421 121.98C273.784 121.98 282.166
    129.533 285.221 133.891C257.521 135.789 241.238 155.708 233.637
    168.301C233.552 151.981 228.509 136.228 219.024 122.722C210.685 110.866
    199.398 101.375 186.191 94.9986C205.964 93.5178 217.391 85.0117 220.834
    82.0095Z"
    fill="#3A4042" />
  <path
    d="M121.358 195.217C128.926 195.217 135.061 189.349 135.061 182.111C135.061
    174.872 128.926 169.004 121.358 169.004C113.791 169.004 107.655 174.872
    107.655 182.111C107.655 189.349 113.791 195.217 121.358 195.217Z"
    fill="#3A4042" />
  <path
    d="M173.733 276.095C163.42 276.095 153.216 274.479 151.287
    274.157H151.285C139.929 272.257 132.299 263.144 132.299 251.48C132.299
    238.661 143.202 228.233 156.604 228.233C162.784 228.233 169.244 230.645
    173.063 234.377C182.065 242.729 196.448 259.059 196.512 267.124C196.527
    269.173 195.674 270.424 194.954 271.111C190.903 274.986 182.28 276.095
    173.733 276.095ZM152.237 268.95C167.789 271.545 186.559 271.665 191.046
    267.373C191.971 264.846 183.075 251.034 169.164 238.124C166.37 235.394
    161.225 233.521 156.604 233.521C146.25 233.521 137.828 241.577 137.828
    251.481C137.827 260.487 143.618 267.507 152.237 268.95Z"
    fill="#3A4042" />
  <path
    d="M379.58 162.809C379.58 90.2385 435.929 34.5799 513.64 34.5799C560.414
    34.5799 601.663 56.7736 624.131 91.6487L573.307 119.831C561.888 100.807
    539.789 89.5353 513.64 89.5353C467.971 89.5353 438.508 118.776 438.508
    162.809C438.508 206.845 467.971 236.084 513.64 236.084C539.789 236.084
    562.256 224.81 573.307 205.79L624.131 233.972C602.032 268.847 560.783
    291.041 513.64 291.041C435.929 291.039 379.58 235.378 379.58 162.809Z"
    fill="#F4F1E4" />
  <path
    d="M642.543 198.036C642.543 145.546 686.003 105.034 740.142 105.034C794.278
    105.034 837.742 145.545 837.742 198.036C837.742 250.527 794.278 291.039
    740.142 291.039C686.003 291.039 642.543 250.527 642.543 198.036ZM782.494
    198.036C782.494 173.024 764.083 156.467 740.142 156.467C716.203 156.467
    697.789 173.024 697.789 198.036C697.789 223.049 716.203 239.606 740.142
    239.606C764.083 239.606 782.494 223.049 782.494 198.036Z"
    fill="#F4F1E4" />
  <path d="M869.039 28.9429H924.28V286.107H869.039V28.9429Z" fill="#F4F1E4" />
  <path d="M964.793 28.9429H1020.04V286.107H964.793V28.9429Z" fill="#F4F1E4" />
  <path
    d="M1249.48 109.967V286.105H1194.24V269.548C1182.08 282.934 1164.03 291.039
    1139.36 291.039C1091.11 291.039 1051.34 250.527 1051.34 198.036C1051.34
    145.545 1091.11 105.034 1139.36 105.034C1164.03 105.034 1182.08 113.137
    1194.24 126.522V109.967H1249.48ZM1194.24 198.036C1194.24 171.615 1175.83
    155.058 1150.41 155.058C1125 155.058 1106.58 171.613 1106.58 198.036C1106.58
    224.456 1125 241.015 1150.41 241.015C1175.83 241.015 1194.24 224.457 1194.24
    198.036Z"
    fill="#F4F1E4" />
  <path
    d="M1488.13 198.036C1488.13 250.527 1448.35 291.039 1400.11 291.039C1375.43
    291.039 1357.39 282.934 1345.23
    269.548V286.105H1289.99V39.5084H1345.23V126.522C1357.39 113.137 1375.43
    105.034 1400.11 105.034C1448.35 105.035 1488.13 145.546 1488.13
    198.036ZM1432.89 198.036C1432.89 171.615 1414.47 155.058 1389.06
    155.058C1363.65 155.058 1345.23 171.613 1345.23 198.036C1345.23 224.456
    1363.65 241.015 1389.06 241.015C1414.47 241.015 1432.89 224.457 1432.89
    198.036Z"
    fill="#F4F1E4" />
  <path
    d="M1560.48 281.524L1536.17 258.274V134.275L1560.48 111.025H1595.83L1620.14
    134.275V164.217H1605.77V138.853L1589.19 123.001H1567.1L1550.53
    138.853V253.693L1567.1 269.546H1589.19L1605.77
    253.693V228.331H1620.14V258.273L1595.83 281.524H1560.48V281.524Z"
    fill="#F4F1E4" />
  <path
    d="M1679.43 281.524L1655.12 258.274V134.275L1679.43 111.025H1719.94L1744.25
    134.275V258.273L1719.94 281.524H1679.43V281.524ZM1686.06
    269.548H1713.31L1729.89 253.694V138.854L1713.31 123.002H1686.06L1669.49
    138.854V253.694L1686.06 269.548Z"
    fill="#F4F1E4" />
  <path
    d="M1805.39 281.524L1781.08 258.274V134.275L1805.39 111.025H1833L1856.21
    133.216V38.4568H1870.57V281.524H1857.31L1856.58 258.977L1833
    281.524H1805.39V281.524ZM1812.01 269.548H1828.59L1856.21
    243.125V149.423L1828.59 123.002H1812.01L1795.44 138.854V253.694L1812.01
    269.548Z"
    fill="#F4F1E4" />
  <path
    d="M1935.39 281.524L1911.09 258.274V134.275L1935.39 111.025H1974.43L1998.74
    134.275V198.74H1925.45V253.693L1942.02 269.546H1967.8L1984.37
    253.693V232.557H1998.74V258.273L1974.43 281.524H1935.39V281.524ZM1925.45
    186.764H1984.37V138.854L1967.8 123.002H1942.02L1925.45 138.854V186.764Z"
    fill="#F4F1E4" />
</svg>
