<svg
  viewBox="0 0 2020 320"
  fill="none"
  xmlns="http://www.w3.org/2000/svg"
  aria-labelledby="title desc"
  role="img">
  <title id="title">Logo da CollabCode</title>
  <desc id="desc">
    Tem o desenho de um passáro com cabelo vermelho chamado Gueio e na frente
    dele um texto escrito CollabCode na cor cinza
  </desc>

  <path
    d="M161.632 299.139C245.836 299.139 314.097 233.844 314.097 153.298C314.097
    72.7517 245.836 7.4563 161.632 7.4563C77.4283 7.4563 9.16748 72.7517 9.16748
    153.298C9.16748 233.844 77.4283 299.139 161.632 299.139Z"
    fill="#3A4042" />
  <path
    d="M289.56 136.399C247.882 136.399 229.327 182.753 228.756 184.198C227.416
    188.149 218.235 216.187 218.235 238.606C218.235 280.976 181.495 305.493
    136.924 305.493C91.9839 305.493 55.5757 280.606 55.5757 237.637C55.5757
    237.637 55.5757 213.896 58.5971 192.817C51.4294 185.061 50.379 172.636
    50.379 172.636C50.379 172.636 47.3597 173.2 44.5966 175.401C44.2553 175.674
    43.7323 175.411 43.7844 174.988C44.6009 168.358 51.6208 154.287 65.5256
    152.261C67.958 142.85 72.5636 132.892 73.6139 131.006C87.709 105.873 115.421
    88.7944 147.316 88.7944C159.016 88.7944 170.145 91.0856 180.261
    95.2449C208.378 95.2449 221.957 80.9689 221.957 80.9689C228.27 80.9689
    235.879 96.7693 232.353 102.656C232.267 102.801 232.459 102.969 232.605
    102.879C244.318 95.7412 250.921 78.1316 250.921 78.1316C264.298 84.5293
    271.319 113.276 264.132 120.149C287.22 123.55 293.43 136.399 289.56 136.399Z"
    fill="#FFFCEE" />
  <path
    d="M134.909 305.459C90.8984 304.73 55.5724 279.975 55.5724 237.644C55.5724
    237.644 55.2035 231.568 56.2422 217.27C102.26 210.352 79.6408 273.439
    134.909 305.459Z"
    fill="#EAE6DA" />
  <path
    d="M290.631 135.271C290.631 135.976 290.262 136.399 289.562 136.399C288.899
    136.399 288.255 136.416 287.591 136.435C250.611 137.615 234.213 171.896
    231.431 178.418C231.413 178.453 231.394 178.488 231.376 178.523C229.865
    181.502 229.017 183.564 228.796 184.093C230.049 178.806 230.897 173.729
    230.897 168.724C230.897 152.244 225.682 136.929 216.747 124.204C207.81
    111.496 195.17 101.362 180.283 95.2459C181.002 95.2459 181.721 95.2287
    182.439 95.2104C182.882 95.2104 183.324 95.1931 183.766 95.1575C184.226
    95.1575 184.688 95.1219 185.148 95.1046C185.849 95.0517 186.511 94.9988
    187.174 94.9459C187.58 94.9103 187.986 94.8758 188.391 94.8229C191.118
    94.5585 193.679 94.1354 196.074 93.6239C196.498 93.5181 196.921 93.4297
    197.327 93.3239C197.77 93.2354 198.212 93.1297 198.654 93.0066C199.152
    92.8836 199.649 92.7595 200.128 92.6192C200.902 92.3903 201.676 92.1605
    202.412 91.9317C203.002 91.7375 203.591 91.5442 204.144 91.3327C204.715
    91.1385 205.287 90.9452 205.821 90.7154C206.374 90.5212 206.889 90.3097
    207.405 90.0808C208.418 89.6578 209.395 89.2174 210.316 88.7771C211.477
    88.2127 212.545 87.6493 213.54 87.0849C215.18 86.1686 216.562 85.2696
    217.705 84.4591C219.087 83.4717 220.137 82.6266 220.837 82.0093C220.855
    81.992 220.855 81.992 220.874 81.9737C221.574 81.4093 222.588 81.4276
    223.287 81.991C226.77 84.8811 235.779 93.447 232.408 102.542C232.39 102.577
    232.371 102.612 232.353 102.647C232.315 102.736 232.353 102.806 232.408
    102.842C232.463 102.894 232.556 102.93 232.629 102.877C232.979 102.666
    233.31 102.454 233.661 102.207C234.435 101.678 235.209 101.114 235.928
    100.497C236.204 100.269 236.481 100.022 236.757 99.7744C237.199 99.387
    237.642 98.9639 238.066 98.5409C238.269 98.3466 238.471 98.1534 238.656
    97.9419C238.693 97.9063 238.729 97.8717 238.766 97.8361C238.895 97.7131
    239.006 97.589 239.116 97.466C239.245 97.3246 239.375 97.2015 239.485
    97.0785C239.522 97.0429 239.54 97.0083 239.559 96.99C239.762 96.7785 239.946
    96.567 240.111 96.3554C240.222 96.2324 240.332 96.1266 240.425
    96.0026C240.757 95.6151 241.088 95.2093 241.402 94.8219C241.586 94.5931
    241.771 94.3632 241.937 94.1344C241.992 94.0815 242.029 94.0286 242.047
    93.9758C242.047 93.9758 242.085 93.9585 242.085 93.9402C242.268 93.7114
    242.453 93.4815 242.6 93.2527C242.803 92.9883 243.005 92.7239 243.171
    92.4595C243.264 92.371 243.319 92.2653 243.374 92.1778C243.447 92.0893
    243.503 92.0019 243.558 91.9134C243.706 91.7191 243.834 91.5259 243.963
    91.3317C244.24 90.9259 244.516 90.5029 244.774 90.0981C244.792 90.0808
    244.812 90.0625 244.812 90.0452C245.088 89.6395 245.327 89.2347 245.567
    88.829C245.623 88.7588 245.66 88.6876 245.696 88.6174C246.065 88.0357
    246.397 87.454 246.709 86.8896C246.838 86.6781 246.948 86.4839 247.059
    86.2906C247.28 85.9032 247.483 85.4974 247.685 85.1272C247.851 84.8272
    247.999 84.5283 248.165 84.2456C248.165 84.2283 248.165 84.21 248.183
    84.1927C248.201 84.1225 248.238 84.0513 248.275 83.9984C248.478 83.6283
    248.662 83.2581 248.828 82.9052C248.957 82.6408 249.086 82.3764 249.197
    82.1293C249.27 81.9879 249.326 81.8649 249.381 81.7418C249.418 81.6716
    249.454 81.6004 249.491 81.5303C249.62 81.2303 249.75 80.9659 249.86
    80.7015C249.898 80.613 249.934 80.5428 249.989 80.4543C250.634 79.4669
    252.09 79.3265 252.919 80.2428C255.664 83.2571 260.676 89.1788 264.251
    95.8765C264.344 96.088 264.399 96.2995 264.49 96.511C267.659 105.817 268.046
    115.74 264.49 119.776C264.38 119.899 264.269 120.023 264.14 120.146C265.578
    120.358 266.96 120.605 268.268 120.886C268.82 121.009 269.355 121.134
    269.889 121.257C270.165 121.327 270.442 121.398 270.7 121.468C271.216
    121.591 271.713 121.733 272.193 121.874C278.365 123.654 282.824 126.139
    285.809 128.553C286.068 128.765 286.307 128.976 286.546 129.188C286.583
    129.205 286.619 129.223 286.639 129.258C286.878 129.47 287.099 129.681
    287.32 129.893C287.541 130.104 287.762 130.316 287.965 130.544C288.168
    130.756 288.37 130.967 288.536 131.179C288.85 131.532 289.126 131.884
    289.366 132.219C290.084 133.259 290.489 134.176 290.6 134.881C290.613
    135.024 290.631 135.147 290.631 135.271Z"
    fill="#F25A70" />
  <path
    d="M68.9562 152.023C52.7763 152.023 44.6454 167.837 43.78 174.994C43.7279
    175.423 44.2457 175.681 44.5923 175.406C47.3649 173.207 50.3874 172.629
    50.3874 172.629C50.3874 172.629 52.6158 198.917 72.6708 198.917C97.1815
    198.917 94.9531 152.023 68.9562 152.023Z"
    fill="#828282" />
  <path
    d="M151.762 271.569C163.857 273.586 186.685 275.297 192.999 269.257C197.085
    265.349 183.671 247.918 171.087 236.24C167.933 233.157 162.181 230.889
    156.603 230.889C144.703 230.889 135.062 240.112 135.062 251.494C135.064
    261.655 141.654 269.878 151.762 271.569Z"
    fill="#F4F1E4" />
  <path
    d="M275.19 115.397C277.985 104.711 272.273 90.809 258.476 75.6146C256.726
    73.6875 254.194 72.5821 251.532 72.5821C247.849 72.5821 244.526 74.675
    243.071 77.914C242.277 79.6814 240.353 83.6903 237.587 87.7378C234.79
    82.6845 230.651 78.7794 228.094 76.6641C226.415 75.275 224.271 74.5102
    222.058 74.5102C219.765 74.5102 217.567 75.3248 215.87 76.8045C212.878
    79.414 201.72 87.7917 181.71 88.1812C170.803 83.9089 159.24 81.7449 147.317
    81.7449C113.739 81.7449 83.0088 99.3443 67.1213 127.674C66.107 129.495
    62.2776 137.658 59.556 146.424C45.6087 150.94 37.5958 164.994 36.4657
    174.16C36.2031 176.29 36.9058 178.43 38.3931 180.031C39.8868 181.639 42.0333
    182.561 44.2829 182.561C44.4977 182.561 44.7124 182.553 44.9251
    182.535C46.0903 186.369 47.9476 190.828 50.8903 194.832C48.2378 215.297
    48.2059 236.694 48.2059 237.637C48.2059 260.277 57.3723 279.464 74.7132
    293.121C90.6156 305.646 112.709 312.543 136.924 312.543C189.138 312.543
    225.606 282.139 225.606 238.606C225.606 217.332 234.431 190.343 235.71
    186.543C237.012 183.321 253.87 143.449 289.56 143.449C294.014 143.449
    297.631 140.228 297.972 135.957C298.541 128.867 290.138 119.983 275.19
    115.397ZM192.564 285.887C178.433 296.826 158.671 302.85 136.92
    302.85C82.6442 302.85 58.3493 270.099 58.3493 237.641C58.3493 237.423
    58.3823 217.362 60.7084 198.044C63.9521 200.201 67.8899 201.561 72.6698
    201.561C78.9838 201.561 84.2325 198.893 87.8504 193.845C90.9016 189.585
    92.5824 183.792 92.5824 177.534C92.5824 163.963 84.3877 149.556 69.2061
    149.396C71.6577 141.402 75.1905 133.81 76.0559 132.256C90.1765 107.079
    117.483 91.4385 147.322 91.4385C158.396 91.4385 169.113 93.5364 179.176
    97.6744C193.498 103.559 205.692 113.242 214.436 125.677C223.386 138.424
    228.117 153.308 228.117 168.724C228.117 176.958 225.725 185.369 222.955
    195.109C219.453 207.423 215.483 221.381 215.483 238.608C215.483 257.932
    207.559 274.281 192.564 285.887ZM80.0831 177.484C65.1917 165.021 51.6675
    169.312 49.5497 170.1C49.2074 170.179 48.6227 170.331 47.8689
    170.599C50.5554 163.984 57.2479 154.667 68.9573 154.667C80.839 154.667
    87.0562 166.169 87.0562 177.532C87.0562 182.735 85.7188 187.464 83.2916
    190.853C80.7157 194.449 77.1424 196.272 72.6709 196.272C65.5797 196.272
    60.1684 192.415 56.5856 184.807C54.7251 180.856 53.8352 176.849 53.4355
    174.498C57.2798 173.659 66.3229 172.991 76.444 181.462C76.9681 181.902
    77.6177 182.116 78.263 182.116C79.0327 182.116 79.7982 181.811 80.3436
    181.213C81.3482 180.116 81.2313 178.446 80.0831 177.484ZM220.835
    82.0143C221.183 81.7113 221.619 81.5608 222.057 81.5608C222.488 81.5608
    222.921 81.7072 223.273 81.9981C226.35 84.5435 233.708 91.4995 233.099
    99.3422C230.022 101.661 226.543 103.199 222.711 103.199C221.184 103.199
    219.947 104.382 219.947 105.843C219.947 107.303 221.184 108.487 222.711
    108.487C238.658 108.487 248.802 89.6781 252.243 82.0977C258.047 86.6537
    262.312 96.3626 263.713 104.618C264.655 110.173 264.317 114.956 262.884
    117.372C259.727 116.956 256.277 116.699 252.422 116.699C250.896 116.699
    249.658 117.882 249.658 119.343C249.658 120.803 250.896 121.987 252.422
    121.987C273.785 121.987 282.168 129.541 285.222 133.898C257.522 135.797
    241.239 155.717 233.638 168.311C233.554 151.99 228.51 136.236 219.025
    122.729C210.687 110.872 199.399 101.38 186.192 95.0039C205.965 93.5232
    217.392 85.0164 220.835 82.0143Z"
    fill="#3A4042" />
  <path
    d="M121.36 195.229C128.927 195.229 135.062 189.36 135.062 182.121C135.062
    174.882 128.927 169.014 121.36 169.014C113.792 169.014 107.657 174.882
    107.657 182.121C107.657 189.36 113.792 195.229 121.36 195.229Z"
    fill="#3A4042" />
  <path
    d="M173.734 276.111C163.421 276.111 153.217 274.495 151.287
    274.173H151.286C139.929 272.273 132.299 263.159 132.299 251.495C132.299
    238.675 143.202 228.246 156.604 228.246C162.784 228.246 169.244 230.659
    173.063 234.391C182.065 242.743 196.448 259.074 196.512 267.14C196.528
    269.189 195.674 270.44 194.954 271.127C190.903 275.002 182.281 276.111
    173.734 276.111ZM152.237 268.965C167.789 271.56 186.559 271.68 191.046
    267.389C191.971 264.862 183.076 251.048 169.165 238.138C166.37 235.408
    161.225 233.534 156.605 233.534C146.251 233.534 137.829 241.592 137.829
    251.496C137.827 260.502 143.619 267.522 152.237 268.965Z"
    fill="#3A4042" />
  <path
    d="M379.58 162.817C379.58 90.2435 435.93 34.5815 513.64 34.5815C560.414
    34.5815 601.664 56.7766 624.131 91.654L573.306 119.838C561.888 100.813
    539.79 89.5398 513.64 89.5398C467.972 89.5398 438.508 118.782 438.508
    162.818C438.508 206.857 467.972 236.097 513.64 236.097C539.79 236.097
    562.256 224.823 573.306 205.801L624.131 233.985C602.031 268.862 560.783
    291.057 513.64 291.057C435.93 291.055 379.58 235.391 379.58 162.817Z"
    fill="#3A4042" />
  <path
    d="M642.542 198.048C642.542 145.555 686.002 105.04 740.142 105.04C794.281
    105.04 837.741 145.554 837.741 198.048C837.741 250.542 794.281 291.055
    740.142 291.055C686.002 291.055 642.542 250.542 642.542 198.048ZM782.495
    198.048C782.495 173.034 764.08 156.476 740.142 156.476C716.203 156.476
    697.788 173.034 697.788 198.048C697.788 223.062 716.203 239.62 740.142
    239.62C764.08 239.62 782.495 223.062 782.495 198.048Z"
    fill="#3A4042" />
  <path d="M869.039 28.9446H924.284V286.123H869.039V28.9446Z" fill="#3A4042" />
  <path d="M964.792 28.9446H1020.04V286.123H964.792V28.9446Z" fill="#3A4042" />
  <path
    d="M1249.48 109.973V286.122H1194.24V269.564C1182.08 282.95 1164.04 291.055
    1139.36 291.055C1091.11 291.055 1051.34 250.542 1051.34 198.048C1051.34
    145.554 1091.11 105.04 1139.36 105.04C1164.04 105.04 1182.08 113.143 1194.24
    126.529V109.973H1249.48ZM1194.24 198.048C1194.24 171.624 1175.82 155.067
    1150.41 155.067C1125 155.067 1106.58 171.623 1106.58 198.048C1106.58 224.469
    1125 241.028 1150.41 241.028C1175.82 241.028 1194.24 224.47 1194.24 198.048Z"
    fill="#3A4042" />
  <path
    d="M1488.13 198.048C1488.13 250.541 1448.36 291.055 1400.11 291.055C1375.43
    291.055 1357.38 282.95 1345.23
    269.564V286.122H1289.99V39.5107H1345.23V126.53C1357.39 113.143 1375.43
    105.04 1400.11 105.04C1448.36 105.041 1488.13 145.555 1488.13
    198.048ZM1432.89 198.048C1432.89 171.624 1414.47 155.067 1389.06
    155.067C1363.65 155.067 1345.23 171.623 1345.23 198.048C1345.23 224.469
    1363.65 241.028 1389.06 241.028C1414.47 241.028 1432.89 224.47 1432.89
    198.048Z"
    fill="#3A4042" />
  <path
    d="M1560.47 281.541L1536.17 258.289V134.283L1560.47 111.031H1595.83L1620.14
    134.283V164.227H1605.77V138.861L1589.2 123.009H1567.1L1550.53
    138.861V253.708L1567.1 269.562H1589.2L1605.77
    253.708V228.344H1620.14V258.288L1595.83 281.54H1560.47V281.541Z"
    fill="#3A4042" />
  <path
    d="M1679.43 281.541L1655.12 258.289V134.283L1679.43 111.031H1719.94L1744.25
    134.283V258.288L1719.94 281.54H1679.43V281.541ZM1686.06
    269.563H1713.31L1729.89 253.709V138.862L1713.31 123.01H1686.06L1669.49
    138.862V253.709L1686.06 269.563Z"
    fill="#3A4042" />
  <path
    d="M1805.38 281.541L1781.08 258.289V134.283L1805.38 111.031H1833.01L1856.21
    133.224V38.4592H1870.57V281.54H1857.31L1856.58 258.993L1833.01
    281.54H1805.38V281.541ZM1812.01 269.563H1828.59L1856.21
    243.14V149.431L1828.59 123.01H1812.01L1795.44 138.862V253.709L1812.01
    269.563Z"
    fill="#3A4042" />
  <path
    d="M1935.39 281.541L1911.08 258.289V134.283L1935.39 111.031H1974.43L1998.74
    134.283V198.752H1925.45V253.708L1942.02 269.562H1967.8L1984.37
    253.708V232.57H1998.74V258.288L1974.43 281.54H1935.39V281.541ZM1925.45
    186.775H1984.37V138.862L1967.8 123.01H1942.02L1925.45 138.862V186.775Z"
    fill="#3A4042" />
</svg>
